<svg xmlns="http://www.w3.org/2000/svg" width="805" height="600"><rect width="805" height="600" x="0" y="0" fill="#FFFFFF" id="background"/><g transform="translate(82,100)" id="viz"><g fill="none" font-size="10" font-family="sans-serif" text-anchor="middle"><path class="domain" stroke="currentColor" d="M0,0H673"/><g class="tick" opacity="1" transform="translate(15.049475013290806,0)"><line stroke="currentColor" y2="-6"/><text fill="currentColor" y="-9" dy="3.4641016151377544" dx="3.4641016151377544" text-anchor="start" transform="rotate(-45)">0</text></g><g class="tick" opacity="1" transform="translate(43.001694577352474,0)"><line stroke="currentColor" y2="-6"/><text fill="currentColor" y="-9" dy="3.4641016151377544" dx="3.4641016151377544" text-anchor="start" transform="rotate(-45)">1</text></g><g class="tick" opacity="1" transform="translate(70.95391414141415,0)"><line stroke="currentColor" y2="-6"/><text fill="currentColor" y="-9" dy="3.4641016151377544" dx="3.4641016151377544" text-anchor="start" transform="rotate(-45)">2</text></g><g class="tick" opacity="1" transform="translate(98.90613370547581,0)"><line stroke="currentColor" y2="-6"/><text fill="currentColor" y="-9" dy="3.4641016151377544" dx="3.4641016151377544" text-anchor="start" transform="rotate(-45)">3</text></g><g class="tick" opacity="1" transform="translate(126.85835326953747,0)"><line stroke="currentColor" y2="-6"/><text fill="currentColor" y="-9" dy="3.4641016151377544" dx="3.4641016151377544" text-anchor="start" transform="rotate(-45)">4</text></g><g class="tick" opacity="1" transform="translate(154.81057283359917,0)"><line stroke="currentColor" y2="-6"/><text fill="currentColor" y="-9" dy="3.4641016151377544" dx="3.4641016151377544" text-anchor="start" transform="rotate(-45)">5</text></g><g class="tick" opacity="1" transform="translate(182.76279239766083,0)"><line stroke="currentColor" y2="-6"/><text fill="currentColor" y="-9" dy="3.4641016151377544" dx="3.4641016151377544" text-anchor="start" transform="rotate(-45)">6</text></g><g class="tick" opacity="1" transform="translate(210.7150119617225,0)"><line stroke="currentColor" y2="-6"/><text fill="currentColor" y="-9" dy="3.4641016151377544" dx="3.4641016151377544" text-anchor="start" transform="rotate(-45)">7</text></g><g class="tick" opacity="1" transform="translate(238.66723152578416,0)"><line stroke="currentColor" y2="-6"/><text fill="currentColor" y="-9" dy="3.4641016151377544" dx="3.4641016151377544" text-anchor="start" transform="rotate(-45)">8</text></g><g class="tick" opacity="1" transform="translate(266.6194510898458,0)"><line stroke="currentColor" y2="-6"/><text fill="currentColor" y="-9" dy="3.4641016151377544" dx="3.4641016151377544" text-anchor="start" transform="rotate(-45)">9</text></g><g class="tick" opacity="1" transform="translate(294.5716706539075,0)"><line stroke="currentColor" y2="-6"/><text fill="currentColor" y="-9" dy="3.4641016151377544" dx="3.4641016151377544" text-anchor="start" transform="rotate(-45)">10</text></g><g class="tick" opacity="1" transform="translate(322.52389021796915,0)"><line stroke="currentColor" y2="-6"/><text fill="currentColor" y="-9" dy="3.4641016151377544" dx="3.4641016151377544" text-anchor="start" transform="rotate(-45)">11</text></g><g class="tick" opacity="1" transform="translate(350.47610978203085,0)"><line stroke="currentColor" y2="-6"/><text fill="currentColor" y="-9" dy="3.4641016151377544" dx="3.4641016151377544" text-anchor="start" transform="rotate(-45)">12</text></g><g class="tick" opacity="1" transform="translate(378.4283293460925,0)"><line stroke="currentColor" y2="-6"/><text fill="currentColor" y="-9" dy="3.4641016151377544" dx="3.4641016151377544" text-anchor="start" transform="rotate(-45)">13</text></g><g class="tick" opacity="1" transform="translate(406.3805489101542,0)"><line stroke="currentColor" y2="-6"/><text fill="currentColor" y="-9" dy="3.4641016151377544" dx="3.4641016151377544" text-anchor="start" transform="rotate(-45)">14</text></g><g class="tick" opacity="1" transform="translate(434.3327684742158,0)"><line stroke="currentColor" y2="-6"/><text fill="currentColor" y="-9" dy="3.4641016151377544" dx="3.4641016151377544" text-anchor="start" transform="rotate(-45)">15</text></g><g class="tick" opacity="1" transform="translate(462.2849880382775,0)"><line stroke="currentColor" y2="-6"/><text fill="currentColor" y="-9" dy="3.4641016151377544" dx="3.4641016151377544" text-anchor="start" transform="rotate(-45)">16</text></g><g class="tick" opacity="1" transform="translate(490.2372076023392,0)"><line stroke="currentColor" y2="-6"/><text fill="currentColor" y="-9" dy="3.4641016151377544" dx="3.4641016151377544" text-anchor="start" transform="rotate(-45)">17</text></g><g class="tick" opacity="1" transform="translate(518.1894271664008,0)"><line stroke="currentColor" y2="-6"/><text fill="currentColor" y="-9" dy="3.4641016151377544" dx="3.4641016151377544" text-anchor="start" transform="rotate(-45)">18</text></g><g class="tick" opacity="1" transform="translate(546.1416467304625,0)"><line stroke="currentColor" y2="-6"/><text fill="currentColor" y="-9" dy="3.4641016151377544" dx="3.4641016151377544" text-anchor="start" transform="rotate(-45)">19</text></g><g class="tick" opacity="1" transform="translate(574.0938662945242,0)"><line stroke="currentColor" y2="-6"/><text fill="currentColor" y="-9" dy="3.4641016151377544" dx="3.4641016151377544" text-anchor="start" transform="rotate(-45)">20</text></g><g class="tick" opacity="1" transform="translate(602.0460858585858,0)"><line stroke="currentColor" y2="-6"/><text fill="currentColor" y="-9" dy="3.4641016151377544" dx="3.4641016151377544" text-anchor="start" transform="rotate(-45)">21</text></g><g class="tick" opacity="1" transform="translate(629.9983054226475,0)"><line stroke="currentColor" y2="-6"/><text fill="currentColor" y="-9" dy="3.4641016151377544" dx="3.4641016151377544" text-anchor="start" transform="rotate(-45)">22</text></g><g class="tick" opacity="1" transform="translate(657.9505249867092,0)"><line stroke="currentColor" y2="-6"/><text fill="currentColor" y="-9" dy="3.4641016151377544" dx="3.4641016151377544" text-anchor="start" transform="rotate(-45)">23</text></g></g><g fill="none" font-size="10" font-family="sans-serif" text-anchor="end"><path class="domain" stroke="currentColor" d="M0,0V196.29166666666669"/><g class="tick" opacity="1" transform="translate(0,14.93378834124652)"><line stroke="currentColor" x2="-6"/><text fill="currentColor" x="-9" dy="0.32em">Lunes</text></g><g class="tick" opacity="1" transform="translate(0,42.67113667194213)"><line stroke="currentColor" x2="-6"/><text fill="currentColor" x="-9" dy="0.32em">Martes</text></g><g class="tick" opacity="1" transform="translate(0,70.40848500263775)"><line stroke="currentColor" x2="-6"/><text fill="currentColor" x="-9" dy="0.32em">Miércoles</text></g><g class="tick" opacity="1" transform="translate(0,98.14583333333336)"><line stroke="currentColor" x2="-6"/><text fill="currentColor" x="-9" dy="0.32em">Jueves</text></g><g class="tick" opacity="1" transform="translate(0,125.88318166402897)"><line stroke="currentColor" x2="-6"/><text fill="currentColor" x="-9" dy="0.32em">Viernes</text></g><g class="tick" opacity="1" transform="translate(0,153.6205299947246)"><line stroke="currentColor" x2="-6"/><text fill="currentColor" x="-9" dy="0.32em">Sábado</text></g><g class="tick" opacity="1" transform="translate(0,181.3578783254202)"><line stroke="currentColor" x2="-6"/><text fill="currentColor" x="-9" dy="0.32em">Domingo</text></g></g><text dx="-9" dy="-9" style="text-anchor: end; font-family: Arial, sans-serif; font-size: 12px; fill: rgb(123, 123, 123); font-weight: bold;">dia_semana</text><text x="482.2468247692254" y="482.2468247692254" dx="3.4641016151377544" dy="-3.4641016151377544" transform="rotate(-45)" style="text-anchor: start; font-family: Arial, sans-serif; font-size: 12px; fill: rgb(123, 123, 123); font-weight: bold;">hora</text><rect x="2.1467304625199404" y="2.1302283517974274" rx="0" ry="0" width="26.041666666666668" height="26.041666666666668" style="fill: rgb(243, 251, 241);"/><rect x="30.09895002658161" y="2.1302283517974274" rx="0" ry="0" width="26.041666666666668" height="26.041666666666668" style="fill: rgb(247, 252, 245);"/><rect x="58.051169590643276" y="2.1302283517974274" rx="0" ry="0" width="26.041666666666668" height="26.041666666666668" style="fill: rgb(247, 252, 245);"/><rect x="86.00338915470495" y="2.1302283517974274" rx="0" ry="0" width="26.041666666666668" height="26.041666666666668" style="fill: rgb(247, 252, 245);"/><rect x="113.95560871876661" y="2.1302283517974274" rx="0" ry="0" width="26.041666666666668" height="26.041666666666668" style="fill: rgb(247, 252, 245);"/><rect x="141.9078282828283" y="2.1302283517974274" rx="0" ry="0" width="26.041666666666668" height="26.041666666666668" style="fill: rgb(247, 252, 245);"/><rect x="169.86004784688996" y="2.1302283517974274" rx="0" ry="0" width="26.041666666666668" height="26.041666666666668" style="fill: rgb(243, 251, 241);"/><rect x="197.81226741095162" y="2.1302283517974274" rx="0" ry="0" width="26.041666666666668" height="26.041666666666668" style="fill: rgb(222, 242, 217);"/><rect x="225.76448697501328" y="2.1302283517974274" rx="0" ry="0" width="26.041666666666668" height="26.041666666666668" style="fill: rgb(34, 139, 69);"/><rect x="253.71670653907495" y="2.1302283517974274" rx="0" ry="0" width="26.041666666666668" height="26.041666666666668" style="fill: rgb(183, 226, 177);"/><rect x="281.66892610313664" y="2.1302283517974274" rx="0" ry="0" width="26.041666666666668" height="26.041666666666668" style="fill: rgb(198, 232, 191);"/><rect x="309.6211456671983" y="2.1302283517974274" rx="0" ry="0" width="26.041666666666668" height="26.041666666666668" style="fill: rgb(69, 170, 93);"/><rect x="337.57336523125997" y="2.1302283517974274" rx="0" ry="0" width="26.041666666666668" height="26.041666666666668" style="fill: rgb(151, 212, 148);"/><rect x="365.5255847953216" y="2.1302283517974274" rx="0" ry="0" width="26.041666666666668" height="26.041666666666668" style="fill: rgb(151, 212, 148);"/><rect x="393.4778043593833" y="2.1302283517974274" rx="0" ry="0" width="26.041666666666668" height="26.041666666666668" style="fill: rgb(160, 216, 155);"/><rect x="421.43002392344494" y="2.1302283517974274" rx="0" ry="0" width="26.041666666666668" height="26.041666666666668" style="fill: rgb(204, 235, 198);"/><rect x="449.3822434875066" y="2.1302283517974274" rx="0" ry="0" width="26.041666666666668" height="26.041666666666668" style="fill: rgb(134, 204, 133);"/><rect x="477.3344630515683" y="2.1302283517974274" rx="0" ry="0" width="26.041666666666668" height="26.041666666666668" style="fill: rgb(160, 216, 155);"/><rect x="505.28668261562996" y="2.1302283517974274" rx="0" ry="0" width="26.041666666666668" height="26.041666666666668" style="fill: rgb(61, 164, 88);"/><rect x="533.2389021796916" y="2.1302283517974274" rx="0" ry="0" width="26.041666666666668" height="26.041666666666668" style="fill: rgb(54, 158, 83);"/><rect x="561.1911217437533" y="2.1302283517974274" rx="0" ry="0" width="26.041666666666668" height="26.041666666666668" style="fill: rgb(198, 232, 191);"/><rect x="589.1433413078149" y="2.1302283517974274" rx="0" ry="0" width="26.041666666666668" height="26.041666666666668" style="fill: rgb(240, 249, 236);"/><rect x="617.0955608718766" y="2.1302283517974274" rx="0" ry="0" width="26.041666666666668" height="26.041666666666668" style="fill: rgb(232, 246, 227);"/><rect x="645.0477804359383" y="2.1302283517974274" rx="0" ry="0" width="26.041666666666668" height="26.041666666666668" style="fill: rgb(243, 251, 241);"/><rect x="2.1467304625199404" y="29.867576682493038" rx="0" ry="0" width="26.041666666666668" height="26.041666666666668" style="fill: rgb(247, 252, 245);"/><rect x="30.09895002658161" y="29.867576682493038" rx="0" ry="0" width="26.041666666666668" height="26.041666666666668" style="fill: rgb(243, 251, 241);"/><rect x="58.051169590643276" y="29.867576682493038" rx="0" ry="0" width="26.041666666666668" height="26.041666666666668" style="fill: rgb(247, 252, 245);"/><rect x="86.00338915470495" y="29.867576682493038" rx="0" ry="0" width="26.041666666666668" height="26.041666666666668" style="fill: rgb(247, 252, 245);"/><rect x="113.95560871876661" y="29.867576682493038" rx="0" ry="0" width="26.041666666666668" height="26.041666666666668" style="fill: rgb(247, 252, 245);"/><rect x="141.9078282828283" y="29.867576682493038" rx="0" ry="0" width="26.041666666666668" height="26.041666666666668" style="fill: rgb(247, 252, 245);"/><rect x="169.86004784688996" y="29.867576682493038" rx="0" ry="0" width="26.041666666666668" height="26.041666666666668" style="fill: rgb(247, 252, 245);"/><rect x="197.81226741095162" y="29.867576682493038" rx="0" ry="0" width="26.041666666666668" height="26.041666666666668" style="fill: rgb(216, 240, 211);"/><rect x="225.76448697501328" y="29.867576682493038" rx="0" ry="0" width="26.041666666666668" height="26.041666666666668" style="fill: rgb(54, 158, 83);"/><rect x="253.71670653907495" y="29.867576682493038" rx="0" ry="0" width="26.041666666666668" height="26.041666666666668" style="fill: rgb(222, 242, 217);"/><rect x="281.66892610313664" y="29.867576682493038" rx="0" ry="0" width="26.041666666666668" height="26.041666666666668" style="fill: rgb(143, 208, 140);"/><rect x="309.6211456671983" y="29.867576682493038" rx="0" ry="0" width="26.041666666666668" height="26.041666666666668" style="fill: rgb(96, 186, 108);"/><rect x="337.57336523125997" y="29.867576682493038" rx="0" ry="0" width="26.041666666666668" height="26.041666666666668" style="fill: rgb(143, 208, 140);"/><rect x="365.5255847953216" y="29.867576682493038" rx="0" ry="0" width="26.041666666666668" height="26.041666666666668" style="fill: rgb(204, 235, 198);"/><rect x="393.4778043593833" y="29.867576682493038" rx="0" ry="0" width="26.041666666666668" height="26.041666666666668" style="fill: rgb(198, 232, 191);"/><rect x="421.43002392344494" y="29.867576682493038" rx="0" ry="0" width="26.041666666666668" height="26.041666666666668" style="fill: rgb(216, 240, 211);"/><rect x="449.3822434875066" y="29.867576682493038" rx="0" ry="0" width="26.041666666666668" height="26.041666666666668" style="fill: rgb(69, 170, 93);"/><rect x="477.3344630515683" y="29.867576682493038" rx="0" ry="0" width="26.041666666666668" height="26.041666666666668" style="fill: rgb(151, 212, 148);"/><rect x="505.28668261562996" y="29.867576682493038" rx="0" ry="0" width="26.041666666666668" height="26.041666666666668" style="fill: rgb(134, 204, 133);"/><rect x="533.2389021796916" y="29.867576682493038" rx="0" ry="0" width="26.041666666666668" height="26.041666666666668" style="fill: rgb(124, 200, 126);"/><rect x="561.1911217437533" y="29.867576682493038" rx="0" ry="0" width="26.041666666666668" height="26.041666666666668" style="fill: rgb(191, 229, 184);"/><rect x="589.1433413078149" y="29.867576682493038" rx="0" ry="0" width="26.041666666666668" height="26.041666666666668" style="fill: rgb(240, 249, 236);"/><rect x="617.0955608718766" y="29.867576682493038" rx="0" ry="0" width="26.041666666666668" height="26.041666666666668" style="fill: rgb(236, 248, 232);"/><rect x="645.0477804359383" y="29.867576682493038" rx="0" ry="0" width="26.041666666666668" height="26.041666666666668" style="fill: rgb(247, 252, 245);"/><rect x="2.1467304625199404" y="57.60492501318865" rx="0" ry="0" width="26.041666666666668" height="26.041666666666668" style="fill: rgb(247, 252, 245);"/><rect x="30.09895002658161" y="57.60492501318865" rx="0" ry="0" width="26.041666666666668" height="26.041666666666668" style="fill: rgb(240, 249, 236);"/><rect x="58.051169590643276" y="57.60492501318865" rx="0" ry="0" width="26.041666666666668" height="26.041666666666668" style="fill: rgb(247, 252, 245);"/><rect x="86.00338915470495" y="57.60492501318865" rx="0" ry="0" width="26.041666666666668" height="26.041666666666668" style="fill: rgb(247, 252, 245);"/><rect x="113.95560871876661" y="57.60492501318865" rx="0" ry="0" width="26.041666666666668" height="26.041666666666668" style="fill: rgb(247, 252, 245);"/><rect x="141.9078282828283" y="57.60492501318865" rx="0" ry="0" width="26.041666666666668" height="26.041666666666668" style="fill: rgb(247, 252, 245);"/><rect x="169.86004784688996" y="57.60492501318865" rx="0" ry="0" width="26.041666666666668" height="26.041666666666668" style="fill: rgb(247, 252, 245);"/><rect x="197.81226741095162" y="57.60492501318865" rx="0" ry="0" width="26.041666666666668" height="26.041666666666668" style="fill: rgb(191, 229, 184);"/><rect x="225.76448697501328" y="57.60492501318865" rx="0" ry="0" width="26.041666666666668" height="26.041666666666668" style="fill: rgb(105, 191, 114);"/><rect x="253.71670653907495" y="57.60492501318865" rx="0" ry="0" width="26.041666666666668" height="26.041666666666668" style="fill: rgb(183, 226, 177);"/><rect x="281.66892610313664" y="57.60492501318865" rx="0" ry="0" width="26.041666666666668" height="26.041666666666668" style="fill: rgb(204, 235, 198);"/><rect x="309.6211456671983" y="57.60492501318865" rx="0" ry="0" width="26.041666666666668" height="26.041666666666668" style="fill: rgb(115, 195, 120);"/><rect x="337.57336523125997" y="57.60492501318865" rx="0" ry="0" width="26.041666666666668" height="26.041666666666668" style="fill: rgb(86, 181, 103);"/><rect x="365.5255847953216" y="57.60492501318865" rx="0" ry="0" width="26.041666666666668" height="26.041666666666668" style="fill: rgb(198, 232, 191);"/><rect x="393.4778043593833" y="57.60492501318865" rx="0" ry="0" width="26.041666666666668" height="26.041666666666668" style="fill: rgb(176, 223, 170);"/><rect x="421.43002392344494" y="57.60492501318865" rx="0" ry="0" width="26.041666666666668" height="26.041666666666668" style="fill: rgb(204, 235, 198);"/><rect x="449.3822434875066" y="57.60492501318865" rx="0" ry="0" width="26.041666666666668" height="26.041666666666668" style="fill: rgb(77, 175, 98);"/><rect x="477.3344630515683" y="57.60492501318865" rx="0" ry="0" width="26.041666666666668" height="26.041666666666668" style="fill: rgb(191, 229, 184);"/><rect x="505.28668261562996" y="57.60492501318865" rx="0" ry="0" width="26.041666666666668" height="26.041666666666668" style="fill: rgb(69, 170, 93);"/><rect x="533.2389021796916" y="57.60492501318865" rx="0" ry="0" width="26.041666666666668" height="26.041666666666668" style="fill: rgb(115, 195, 120);"/><rect x="561.1911217437533" y="57.60492501318865" rx="0" ry="0" width="26.041666666666668" height="26.041666666666668" style="fill: rgb(176, 223, 170);"/><rect x="589.1433413078149" y="57.60492501318865" rx="0" ry="0" width="26.041666666666668" height="26.041666666666668" style="fill: rgb(216, 240, 211);"/><rect x="617.0955608718766" y="57.60492501318865" rx="0" ry="0" width="26.041666666666668" height="26.041666666666668" style="fill: rgb(243, 251, 241);"/><rect x="645.0477804359383" y="57.60492501318865" rx="0" ry="0" width="26.041666666666668" height="26.041666666666668" style="fill: rgb(243, 251, 241);"/><rect x="2.1467304625199404" y="85.34227334388426" rx="0" ry="0" width="26.041666666666668" height="26.041666666666668" style="fill: rgb(247, 252, 245);"/><rect x="30.09895002658161" y="85.34227334388426" rx="0" ry="0" width="26.041666666666668" height="26.041666666666668" style="fill: rgb(240, 249, 236);"/><rect x="58.051169590643276" y="85.34227334388426" rx="0" ry="0" width="26.041666666666668" height="26.041666666666668" style="fill: rgb(247, 252, 245);"/><rect x="86.00338915470495" y="85.34227334388426" rx="0" ry="0" width="26.041666666666668" height="26.041666666666668" style="fill: rgb(247, 252, 245);"/><rect x="113.95560871876661" y="85.34227334388426" rx="0" ry="0" width="26.041666666666668" height="26.041666666666668" style="fill: rgb(247, 252, 245);"/><rect x="141.9078282828283" y="85.34227334388426" rx="0" ry="0" width="26.041666666666668" height="26.041666666666668" style="fill: rgb(247, 252, 245);"/><rect x="169.86004784688996" y="85.34227334388426" rx="0" ry="0" width="26.041666666666668" height="26.041666666666668" style="fill: rgb(247, 252, 245);"/><rect x="197.81226741095162" y="85.34227334388426" rx="0" ry="0" width="26.041666666666668" height="26.041666666666668" style="fill: rgb(216, 240, 211);"/><rect x="225.76448697501328" y="85.34227334388426" rx="0" ry="0" width="26.041666666666668" height="26.041666666666668" style="fill: rgb(183, 226, 177);"/><rect x="253.71670653907495" y="85.34227334388426" rx="0" ry="0" width="26.041666666666668" height="26.041666666666668" style="fill: rgb(183, 226, 177);"/><rect x="281.66892610313664" y="85.34227334388426" rx="0" ry="0" width="26.041666666666668" height="26.041666666666668" style="fill: rgb(105, 191, 114);"/><rect x="309.6211456671983" y="85.34227334388426" rx="0" ry="0" width="26.041666666666668" height="26.041666666666668" style="fill: rgb(115, 195, 120);"/><rect x="337.57336523125997" y="85.34227334388426" rx="0" ry="0" width="26.041666666666668" height="26.041666666666668" style="fill: rgb(191, 229, 184);"/><rect x="365.5255847953216" y="85.34227334388426" rx="0" ry="0" width="26.041666666666668" height="26.041666666666668" style="fill: rgb(216, 240, 211);"/><rect x="393.4778043593833" y="85.34227334388426" rx="0" ry="0" width="26.041666666666668" height="26.041666666666668" style="fill: rgb(160, 216, 155);"/><rect x="421.43002392344494" y="85.34227334388426" rx="0" ry="0" width="26.041666666666668" height="26.041666666666668" style="fill: rgb(183, 226, 177);"/><rect x="449.3822434875066" y="85.34227334388426" rx="0" ry="0" width="26.041666666666668" height="26.041666666666668" style="fill: rgb(0, 68, 27);"/><rect x="477.3344630515683" y="85.34227334388426" rx="0" ry="0" width="26.041666666666668" height="26.041666666666668" style="fill: rgb(204, 235, 198);"/><rect x="505.28668261562996" y="85.34227334388426" rx="0" ry="0" width="26.041666666666668" height="26.041666666666668" style="fill: rgb(96, 186, 108);"/><rect x="533.2389021796916" y="85.34227334388426" rx="0" ry="0" width="26.041666666666668" height="26.041666666666668" style="fill: rgb(151, 212, 148);"/><rect x="561.1911217437533" y="85.34227334388426" rx="0" ry="0" width="26.041666666666668" height="26.041666666666668" style="fill: rgb(176, 223, 170);"/><rect x="589.1433413078149" y="85.34227334388426" rx="0" ry="0" width="26.041666666666668" height="26.041666666666668" style="fill: rgb(232, 246, 227);"/><rect x="617.0955608718766" y="85.34227334388426" rx="0" ry="0" width="26.041666666666668" height="26.041666666666668" style="fill: rgb(236, 248, 232);"/><rect x="645.0477804359383" y="85.34227334388426" rx="0" ry="0" width="26.041666666666668" height="26.041666666666668" style="fill: rgb(243, 251, 241);"/><rect x="2.1467304625199404" y="113.07962167457987" rx="0" ry="0" width="26.041666666666668" height="26.041666666666668" style="fill: rgb(243, 251, 241);"/><rect x="30.09895002658161" y="113.07962167457987" rx="0" ry="0" width="26.041666666666668" height="26.041666666666668" style="fill: rgb(243, 251, 241);"/><rect x="58.051169590643276" y="113.07962167457987" rx="0" ry="0" width="26.041666666666668" height="26.041666666666668" style="fill: rgb(243, 251, 241);"/><rect x="86.00338915470495" y="113.07962167457987" rx="0" ry="0" width="26.041666666666668" height="26.041666666666668" style="fill: rgb(247, 252, 245);"/><rect x="113.95560871876661" y="113.07962167457987" rx="0" ry="0" width="26.041666666666668" height="26.041666666666668" style="fill: rgb(247, 252, 245);"/><rect x="141.9078282828283" y="113.07962167457987" rx="0" ry="0" width="26.041666666666668" height="26.041666666666668" style="fill: rgb(247, 252, 245);"/><rect x="169.86004784688996" y="113.07962167457987" rx="0" ry="0" width="26.041666666666668" height="26.041666666666668" style="fill: rgb(247, 252, 245);"/><rect x="197.81226741095162" y="113.07962167457987" rx="0" ry="0" width="26.041666666666668" height="26.041666666666668" style="fill: rgb(204, 235, 198);"/><rect x="225.76448697501328" y="113.07962167457987" rx="0" ry="0" width="26.041666666666668" height="26.041666666666668" style="fill: rgb(124, 200, 126);"/><rect x="253.71670653907495" y="113.07962167457987" rx="0" ry="0" width="26.041666666666668" height="26.041666666666668" style="fill: rgb(191, 229, 184);"/><rect x="281.66892610313664" y="113.07962167457987" rx="0" ry="0" width="26.041666666666668" height="26.041666666666668" style="fill: rgb(198, 232, 191);"/><rect x="309.6211456671983" y="113.07962167457987" rx="0" ry="0" width="26.041666666666668" height="26.041666666666668" style="fill: rgb(86, 181, 103);"/><rect x="337.57336523125997" y="113.07962167457987" rx="0" ry="0" width="26.041666666666668" height="26.041666666666668" style="fill: rgb(134, 204, 133);"/><rect x="365.5255847953216" y="113.07962167457987" rx="0" ry="0" width="26.041666666666668" height="26.041666666666668" style="fill: rgb(227, 244, 222);"/><rect x="393.4778043593833" y="113.07962167457987" rx="0" ry="0" width="26.041666666666668" height="26.041666666666668" style="fill: rgb(222, 242, 217);"/><rect x="421.43002392344494" y="113.07962167457987" rx="0" ry="0" width="26.041666666666668" height="26.041666666666668" style="fill: rgb(211, 238, 205);"/><rect x="449.3822434875066" y="113.07962167457987" rx="0" ry="0" width="26.041666666666668" height="26.041666666666668" style="fill: rgb(143, 208, 140);"/><rect x="477.3344630515683" y="113.07962167457987" rx="0" ry="0" width="26.041666666666668" height="26.041666666666668" style="fill: rgb(143, 208, 140);"/><rect x="505.28668261562996" y="113.07962167457987" rx="0" ry="0" width="26.041666666666668" height="26.041666666666668" style="fill: rgb(47, 152, 79);"/><rect x="533.2389021796916" y="113.07962167457987" rx="0" ry="0" width="26.041666666666668" height="26.041666666666668" style="fill: rgb(41, 146, 74);"/><rect x="561.1911217437533" y="113.07962167457987" rx="0" ry="0" width="26.041666666666668" height="26.041666666666668" style="fill: rgb(96, 186, 108);"/><rect x="589.1433413078149" y="113.07962167457987" rx="0" ry="0" width="26.041666666666668" height="26.041666666666668" style="fill: rgb(198, 232, 191);"/><rect x="617.0955608718766" y="113.07962167457987" rx="0" ry="0" width="26.041666666666668" height="26.041666666666668" style="fill: rgb(236, 248, 232);"/><rect x="645.0477804359383" y="113.07962167457987" rx="0" ry="0" width="26.041666666666668" height="26.041666666666668" style="fill: rgb(236, 248, 232);"/><rect x="2.1467304625199404" y="140.8169700052755" rx="0" ry="0" width="26.041666666666668" height="26.041666666666668" style="fill: rgb(236, 248, 232);"/><rect x="30.09895002658161" y="140.8169700052755" rx="0" ry="0" width="26.041666666666668" height="26.041666666666668" style="fill: rgb(243, 251, 241);"/><rect x="58.051169590643276" y="140.8169700052755" rx="0" ry="0" width="26.041666666666668" height="26.041666666666668" style="fill: rgb(247, 252, 245);"/><rect x="86.00338915470495" y="140.8169700052755" rx="0" ry="0" width="26.041666666666668" height="26.041666666666668" style="fill: rgb(247, 252, 245);"/><rect x="113.95560871876661" y="140.8169700052755" rx="0" ry="0" width="26.041666666666668" height="26.041666666666668" style="fill: rgb(247, 252, 245);"/><rect x="141.9078282828283" y="140.8169700052755" rx="0" ry="0" width="26.041666666666668" height="26.041666666666668" style="fill: rgb(247, 252, 245);"/><rect x="169.86004784688996" y="140.8169700052755" rx="0" ry="0" width="26.041666666666668" height="26.041666666666668" style="fill: rgb(247, 252, 245);"/><rect x="197.81226741095162" y="140.8169700052755" rx="0" ry="0" width="26.041666666666668" height="26.041666666666668" style="fill: rgb(247, 252, 245);"/><rect x="225.76448697501328" y="140.8169700052755" rx="0" ry="0" width="26.041666666666668" height="26.041666666666668" style="fill: rgb(240, 249, 236);"/><rect x="253.71670653907495" y="140.8169700052755" rx="0" ry="0" width="26.041666666666668" height="26.041666666666668" style="fill: rgb(222, 242, 217);"/><rect x="281.66892610313664" y="140.8169700052755" rx="0" ry="0" width="26.041666666666668" height="26.041666666666668" style="fill: rgb(96, 186, 108);"/><rect x="309.6211456671983" y="140.8169700052755" rx="0" ry="0" width="26.041666666666668" height="26.041666666666668" style="fill: rgb(124, 200, 126);"/><rect x="337.57336523125997" y="140.8169700052755" rx="0" ry="0" width="26.041666666666668" height="26.041666666666668" style="fill: rgb(96, 186, 108);"/><rect x="365.5255847953216" y="140.8169700052755" rx="0" ry="0" width="26.041666666666668" height="26.041666666666668" style="fill: rgb(191, 229, 184);"/><rect x="393.4778043593833" y="140.8169700052755" rx="0" ry="0" width="26.041666666666668" height="26.041666666666668" style="fill: rgb(168, 220, 162);"/><rect x="421.43002392344494" y="140.8169700052755" rx="0" ry="0" width="26.041666666666668" height="26.041666666666668" style="fill: rgb(143, 208, 140);"/><rect x="449.3822434875066" y="140.8169700052755" rx="0" ry="0" width="26.041666666666668" height="26.041666666666668" style="fill: rgb(134, 204, 133);"/><rect x="477.3344630515683" y="140.8169700052755" rx="0" ry="0" width="26.041666666666668" height="26.041666666666668" style="fill: rgb(143, 208, 140);"/><rect x="505.28668261562996" y="140.8169700052755" rx="0" ry="0" width="26.041666666666668" height="26.041666666666668" style="fill: rgb(168, 220, 162);"/><rect x="533.2389021796916" y="140.8169700052755" rx="0" ry="0" width="26.041666666666668" height="26.041666666666668" style="fill: rgb(105, 191, 114);"/><rect x="561.1911217437533" y="140.8169700052755" rx="0" ry="0" width="26.041666666666668" height="26.041666666666668" style="fill: rgb(191, 229, 184);"/><rect x="589.1433413078149" y="140.8169700052755" rx="0" ry="0" width="26.041666666666668" height="26.041666666666668" style="fill: rgb(160, 216, 155);"/><rect x="617.0955608718766" y="140.8169700052755" rx="0" ry="0" width="26.041666666666668" height="26.041666666666668" style="fill: rgb(236, 248, 232);"/><rect x="645.0477804359383" y="140.8169700052755" rx="0" ry="0" width="26.041666666666668" height="26.041666666666668" style="fill: rgb(247, 252, 245);"/><rect x="2.1467304625199404" y="168.5543183359711" rx="0" ry="0" width="26.041666666666668" height="26.041666666666668" style="fill: rgb(247, 252, 245);"/><rect x="30.09895002658161" y="168.5543183359711" rx="0" ry="0" width="26.041666666666668" height="26.041666666666668" style="fill: rgb(247, 252, 245);"/><rect x="58.051169590643276" y="168.5543183359711" rx="0" ry="0" width="26.041666666666668" height="26.041666666666668" style="fill: rgb(243, 251, 241);"/><rect x="86.00338915470495" y="168.5543183359711" rx="0" ry="0" width="26.041666666666668" height="26.041666666666668" style="fill: rgb(247, 252, 245);"/><rect x="113.95560871876661" y="168.5543183359711" rx="0" ry="0" width="26.041666666666668" height="26.041666666666668" style="fill: rgb(243, 251, 241);"/><rect x="141.9078282828283" y="168.5543183359711" rx="0" ry="0" width="26.041666666666668" height="26.041666666666668" style="fill: rgb(247, 252, 245);"/><rect x="169.86004784688996" y="168.5543183359711" rx="0" ry="0" width="26.041666666666668" height="26.041666666666668" style="fill: rgb(247, 252, 245);"/><rect x="197.81226741095162" y="168.5543183359711" rx="0" ry="0" width="26.041666666666668" height="26.041666666666668" style="fill: rgb(247, 252, 245);"/><rect x="225.76448697501328" y="168.5543183359711" rx="0" ry="0" width="26.041666666666668" height="26.041666666666668" style="fill: rgb(240, 249, 236);"/><rect x="253.71670653907495" y="168.5543183359711" rx="0" ry="0" width="26.041666666666668" height="26.041666666666668" style="fill: rgb(243, 251, 241);"/><rect x="281.66892610313664" y="168.5543183359711" rx="0" ry="0" width="26.041666666666668" height="26.041666666666668" style="fill: rgb(211, 238, 205);"/><rect x="309.6211456671983" y="168.5543183359711" rx="0" ry="0" width="26.041666666666668" height="26.041666666666668" style="fill: rgb(134, 204, 133);"/><rect x="337.57336523125997" y="168.5543183359711" rx="0" ry="0" width="26.041666666666668" height="26.041666666666668" style="fill: rgb(176, 223, 170);"/><rect x="365.5255847953216" y="168.5543183359711" rx="0" ry="0" width="26.041666666666668" height="26.041666666666668" style="fill: rgb(216, 240, 211);"/><rect x="393.4778043593833" y="168.5543183359711" rx="0" ry="0" width="26.041666666666668" height="26.041666666666668" style="fill: rgb(198, 232, 191);"/><rect x="421.43002392344494" y="168.5543183359711" rx="0" ry="0" width="26.041666666666668" height="26.041666666666668" style="fill: rgb(183, 226, 177);"/><rect x="449.3822434875066" y="168.5543183359711" rx="0" ry="0" width="26.041666666666668" height="26.041666666666668" style="fill: rgb(191, 229, 184);"/><rect x="477.3344630515683" y="168.5543183359711" rx="0" ry="0" width="26.041666666666668" height="26.041666666666668" style="fill: rgb(183, 226, 177);"/><rect x="505.28668261562996" y="168.5543183359711" rx="0" ry="0" width="26.041666666666668" height="26.041666666666668" style="fill: rgb(176, 223, 170);"/><rect x="533.2389021796916" y="168.5543183359711" rx="0" ry="0" width="26.041666666666668" height="26.041666666666668" style="fill: rgb(183, 226, 177);"/><rect x="561.1911217437533" y="168.5543183359711" rx="0" ry="0" width="26.041666666666668" height="26.041666666666668" style="fill: rgb(216, 240, 211);"/><rect x="589.1433413078149" y="168.5543183359711" rx="0" ry="0" width="26.041666666666668" height="26.041666666666668" style="fill: rgb(222, 242, 217);"/><rect x="617.0955608718766" y="168.5543183359711" rx="0" ry="0" width="26.041666666666668" height="26.041666666666668" style="fill: rgb(236, 248, 232);"/><rect x="645.0477804359383" y="168.5543183359711" rx="0" ry="0" width="26.041666666666668" height="26.041666666666668" style="fill: rgb(247, 252, 245);"/><g id="labels"><g transform="translate(15.167563795853274,15.151061685130761)"><text x="0" y="0" text-anchor="middle" dominant-baseline="text-before-edge" transform="translate(0,0)"/></g><g transform="translate(43.11978335991494,15.151061685130761)"><text x="0" y="0" text-anchor="middle" dominant-baseline="text-before-edge" transform="translate(0,0)"/></g><g transform="translate(71.07200292397661,15.151061685130761)"><text x="0" y="0" text-anchor="middle" dominant-baseline="text-before-edge" transform="translate(0,0)"/></g><g transform="translate(99.02422248803828,15.151061685130761)"><text x="0" y="0" text-anchor="middle" dominant-baseline="text-before-edge" transform="translate(0,0)"/></g><g transform="translate(126.97644205209994,15.151061685130761)"><text x="0" y="0" text-anchor="middle" dominant-baseline="text-before-edge" transform="translate(0,0)"/></g><g transform="translate(154.92866161616163,15.151061685130761)"><text x="0" y="0" text-anchor="middle" dominant-baseline="text-before-edge" transform="translate(0,0)"/></g><g transform="translate(182.8808811802233,15.151061685130761)"><text x="0" y="0" text-anchor="middle" dominant-baseline="text-before-edge" transform="translate(0,0)"/></g><g transform="translate(210.83310074428496,15.151061685130761)"><text x="0" y="0" text-anchor="middle" dominant-baseline="text-before-edge" transform="translate(0,0)"/></g><g transform="translate(238.78532030834663,15.151061685130761)"><text x="0" y="0" text-anchor="middle" dominant-baseline="text-before-edge" transform="translate(0,0)"/></g><g transform="translate(266.73753987240826,15.151061685130761)"><text x="0" y="0" text-anchor="middle" dominant-baseline="text-before-edge" transform="translate(0,0)"/></g><g transform="translate(294.68975943646996,15.151061685130761)"><text x="0" y="0" text-anchor="middle" dominant-baseline="text-before-edge" transform="translate(0,0)"/></g><g transform="translate(322.6419790005316,15.151061685130761)"><text x="0" y="0" text-anchor="middle" dominant-baseline="text-before-edge" transform="translate(0,0)"/></g><g transform="translate(350.5941985645933,15.151061685130761)"><text x="0" y="0" text-anchor="middle" dominant-baseline="text-before-edge" transform="translate(0,0)"/></g><g transform="translate(378.5464181286549,15.151061685130761)"><text x="0" y="0" text-anchor="middle" dominant-baseline="text-before-edge" transform="translate(0,0)"/></g><g transform="translate(406.4986376927166,15.151061685130761)"><text x="0" y="0" text-anchor="middle" dominant-baseline="text-before-edge" transform="translate(0,0)"/></g><g transform="translate(434.45085725677825,15.151061685130761)"><text x="0" y="0" text-anchor="middle" dominant-baseline="text-before-edge" transform="translate(0,0)"/></g><g transform="translate(462.40307682083994,15.151061685130761)"><text x="0" y="0" text-anchor="middle" dominant-baseline="text-before-edge" transform="translate(0,0)"/></g><g transform="translate(490.35529638490164,15.151061685130761)"><text x="0" y="0" text-anchor="middle" dominant-baseline="text-before-edge" transform="translate(0,0)"/></g><g transform="translate(518.3075159489633,15.151061685130761)"><text x="0" y="0" text-anchor="middle" dominant-baseline="text-before-edge" transform="translate(0,0)"/></g><g transform="translate(546.259735513025,15.151061685130761)"><text x="0" y="0" text-anchor="middle" dominant-baseline="text-before-edge" transform="translate(0,0)"/></g><g transform="translate(574.2119550770867,15.151061685130761)"><text x="0" y="0" text-anchor="middle" dominant-baseline="text-before-edge" transform="translate(0,0)"/></g><g transform="translate(602.1641746411483,15.151061685130761)"><text x="0" y="0" text-anchor="middle" dominant-baseline="text-before-edge" transform="translate(0,0)"/></g><g transform="translate(630.11639420521,15.151061685130761)"><text x="0" y="0" text-anchor="middle" dominant-baseline="text-before-edge" transform="translate(0,0)"/></g><g transform="translate(658.0686137692717,15.151061685130761)"><text x="0" y="0" text-anchor="middle" dominant-baseline="text-before-edge" transform="translate(0,0)"/></g><g transform="translate(15.167563795853274,42.88841001582637)"><text x="0" y="0" text-anchor="middle" dominant-baseline="text-before-edge" transform="translate(0,0)"/></g><g transform="translate(43.11978335991494,42.88841001582637)"><text x="0" y="0" text-anchor="middle" dominant-baseline="text-before-edge" transform="translate(0,0)"/></g><g transform="translate(71.07200292397661,42.88841001582637)"><text x="0" y="0" text-anchor="middle" dominant-baseline="text-before-edge" transform="translate(0,0)"/></g><g transform="translate(99.02422248803828,42.88841001582637)"><text x="0" y="0" text-anchor="middle" dominant-baseline="text-before-edge" transform="translate(0,0)"/></g><g transform="translate(126.97644205209994,42.88841001582637)"><text x="0" y="0" text-anchor="middle" dominant-baseline="text-before-edge" transform="translate(0,0)"/></g><g transform="translate(154.92866161616163,42.88841001582637)"><text x="0" y="0" text-anchor="middle" dominant-baseline="text-before-edge" transform="translate(0,0)"/></g><g transform="translate(182.8808811802233,42.88841001582637)"><text x="0" y="0" text-anchor="middle" dominant-baseline="text-before-edge" transform="translate(0,0)"/></g><g transform="translate(210.83310074428496,42.88841001582637)"><text x="0" y="0" text-anchor="middle" dominant-baseline="text-before-edge" transform="translate(0,0)"/></g><g transform="translate(238.78532030834663,42.88841001582637)"><text x="0" y="0" text-anchor="middle" dominant-baseline="text-before-edge" transform="translate(0,0)"/></g><g transform="translate(266.73753987240826,42.88841001582637)"><text x="0" y="0" text-anchor="middle" dominant-baseline="text-before-edge" transform="translate(0,0)"/></g><g transform="translate(294.68975943646996,42.88841001582637)"><text x="0" y="0" text-anchor="middle" dominant-baseline="text-before-edge" transform="translate(0,0)"/></g><g transform="translate(322.6419790005316,42.88841001582637)"><text x="0" y="0" text-anchor="middle" dominant-baseline="text-before-edge" transform="translate(0,0)"/></g><g transform="translate(350.5941985645933,42.88841001582637)"><text x="0" y="0" text-anchor="middle" dominant-baseline="text-before-edge" transform="translate(0,0)"/></g><g transform="translate(378.5464181286549,42.88841001582637)"><text x="0" y="0" text-anchor="middle" dominant-baseline="text-before-edge" transform="translate(0,0)"/></g><g transform="translate(406.4986376927166,42.88841001582637)"><text x="0" y="0" text-anchor="middle" dominant-baseline="text-before-edge" transform="translate(0,0)"/></g><g transform="translate(434.45085725677825,42.88841001582637)"><text x="0" y="0" text-anchor="middle" dominant-baseline="text-before-edge" transform="translate(0,0)"/></g><g transform="translate(462.40307682083994,42.88841001582637)"><text x="0" y="0" text-anchor="middle" dominant-baseline="text-before-edge" transform="translate(0,0)"/></g><g transform="translate(490.35529638490164,42.88841001582637)"><text x="0" y="0" text-anchor="middle" dominant-baseline="text-before-edge" transform="translate(0,0)"/></g><g transform="translate(518.3075159489633,42.88841001582637)"><text x="0" y="0" text-anchor="middle" dominant-baseline="text-before-edge" transform="translate(0,0)"/></g><g transform="translate(546.259735513025,42.88841001582637)"><text x="0" y="0" text-anchor="middle" dominant-baseline="text-before-edge" transform="translate(0,0)"/></g><g transform="translate(574.2119550770867,42.88841001582637)"><text x="0" y="0" text-anchor="middle" dominant-baseline="text-before-edge" transform="translate(0,0)"/></g><g transform="translate(602.1641746411483,42.88841001582637)"><text x="0" y="0" text-anchor="middle" dominant-baseline="text-before-edge" transform="translate(0,0)"/></g><g transform="translate(630.11639420521,42.88841001582637)"><text x="0" y="0" text-anchor="middle" dominant-baseline="text-before-edge" transform="translate(0,0)"/></g><g transform="translate(658.0686137692717,42.88841001582637)"><text x="0" y="0" text-anchor="middle" dominant-baseline="text-before-edge" transform="translate(0,0)"/></g><g transform="translate(15.167563795853274,70.62575834652198)"><text x="0" y="0" text-anchor="middle" dominant-baseline="text-before-edge" transform="translate(0,0)"/></g><g transform="translate(43.11978335991494,70.62575834652198)"><text x="0" y="0" text-anchor="middle" dominant-baseline="text-before-edge" transform="translate(0,0)"/></g><g transform="translate(71.07200292397661,70.62575834652198)"><text x="0" y="0" text-anchor="middle" dominant-baseline="text-before-edge" transform="translate(0,0)"/></g><g transform="translate(99.02422248803828,70.62575834652198)"><text x="0" y="0" text-anchor="middle" dominant-baseline="text-before-edge" transform="translate(0,0)"/></g><g transform="translate(126.97644205209994,70.62575834652198)"><text x="0" y="0" text-anchor="middle" dominant-baseline="text-before-edge" transform="translate(0,0)"/></g><g transform="translate(154.92866161616163,70.62575834652198)"><text x="0" y="0" text-anchor="middle" dominant-baseline="text-before-edge" transform="translate(0,0)"/></g><g transform="translate(182.8808811802233,70.62575834652198)"><text x="0" y="0" text-anchor="middle" dominant-baseline="text-before-edge" transform="translate(0,0)"/></g><g transform="translate(210.83310074428496,70.62575834652198)"><text x="0" y="0" text-anchor="middle" dominant-baseline="text-before-edge" transform="translate(0,0)"/></g><g transform="translate(238.78532030834663,70.62575834652198)"><text x="0" y="0" text-anchor="middle" dominant-baseline="text-before-edge" transform="translate(0,0)"/></g><g transform="translate(266.73753987240826,70.62575834652198)"><text x="0" y="0" text-anchor="middle" dominant-baseline="text-before-edge" transform="translate(0,0)"/></g><g transform="translate(294.68975943646996,70.62575834652198)"><text x="0" y="0" text-anchor="middle" dominant-baseline="text-before-edge" transform="translate(0,0)"/></g><g transform="translate(322.6419790005316,70.62575834652198)"><text x="0" y="0" text-anchor="middle" dominant-baseline="text-before-edge" transform="translate(0,0)"/></g><g transform="translate(350.5941985645933,70.62575834652198)"><text x="0" y="0" text-anchor="middle" dominant-baseline="text-before-edge" transform="translate(0,0)"/></g><g transform="translate(378.5464181286549,70.62575834652198)"><text x="0" y="0" text-anchor="middle" dominant-baseline="text-before-edge" transform="translate(0,0)"/></g><g transform="translate(406.4986376927166,70.62575834652198)"><text x="0" y="0" text-anchor="middle" dominant-baseline="text-before-edge" transform="translate(0,0)"/></g><g transform="translate(434.45085725677825,70.62575834652198)"><text x="0" y="0" text-anchor="middle" dominant-baseline="text-before-edge" transform="translate(0,0)"/></g><g transform="translate(462.40307682083994,70.62575834652198)"><text x="0" y="0" text-anchor="middle" dominant-baseline="text-before-edge" transform="translate(0,0)"/></g><g transform="translate(490.35529638490164,70.62575834652198)"><text x="0" y="0" text-anchor="middle" dominant-baseline="text-before-edge" transform="translate(0,0)"/></g><g transform="translate(518.3075159489633,70.62575834652198)"><text x="0" y="0" text-anchor="middle" dominant-baseline="text-before-edge" transform="translate(0,0)"/></g><g transform="translate(546.259735513025,70.62575834652198)"><text x="0" y="0" text-anchor="middle" dominant-baseline="text-before-edge" transform="translate(0,0)"/></g><g transform="translate(574.2119550770867,70.62575834652198)"><text x="0" y="0" text-anchor="middle" dominant-baseline="text-before-edge" transform="translate(0,0)"/></g><g transform="translate(602.1641746411483,70.62575834652198)"><text x="0" y="0" text-anchor="middle" dominant-baseline="text-before-edge" transform="translate(0,0)"/></g><g transform="translate(630.11639420521,70.62575834652198)"><text x="0" y="0" text-anchor="middle" dominant-baseline="text-before-edge" transform="translate(0,0)"/></g><g transform="translate(658.0686137692717,70.62575834652198)"><text x="0" y="0" text-anchor="middle" dominant-baseline="text-before-edge" transform="translate(0,0)"/></g><g transform="translate(15.167563795853274,98.36310667721759)"><text x="0" y="0" text-anchor="middle" dominant-baseline="text-before-edge" transform="translate(0,0)"/></g><g transform="translate(43.11978335991494,98.36310667721759)"><text x="0" y="0" text-anchor="middle" dominant-baseline="text-before-edge" transform="translate(0,0)"/></g><g transform="translate(71.07200292397661,98.36310667721759)"><text x="0" y="0" text-anchor="middle" dominant-baseline="text-before-edge" transform="translate(0,0)"/></g><g transform="translate(99.02422248803828,98.36310667721759)"><text x="0" y="0" text-anchor="middle" dominant-baseline="text-before-edge" transform="translate(0,0)"/></g><g transform="translate(126.97644205209994,98.36310667721759)"><text x="0" y="0" text-anchor="middle" dominant-baseline="text-before-edge" transform="translate(0,0)"/></g><g transform="translate(154.92866161616163,98.36310667721759)"><text x="0" y="0" text-anchor="middle" dominant-baseline="text-before-edge" transform="translate(0,0)"/></g><g transform="translate(182.8808811802233,98.36310667721759)"><text x="0" y="0" text-anchor="middle" dominant-baseline="text-before-edge" transform="translate(0,0)"/></g><g transform="translate(210.83310074428496,98.36310667721759)"><text x="0" y="0" text-anchor="middle" dominant-baseline="text-before-edge" transform="translate(0,0)"/></g><g transform="translate(238.78532030834663,98.36310667721759)"><text x="0" y="0" text-anchor="middle" dominant-baseline="text-before-edge" transform="translate(0,0)"/></g><g transform="translate(266.73753987240826,98.36310667721759)"><text x="0" y="0" text-anchor="middle" dominant-baseline="text-before-edge" transform="translate(0,0)"/></g><g transform="translate(294.68975943646996,98.36310667721759)"><text x="0" y="0" text-anchor="middle" dominant-baseline="text-before-edge" transform="translate(0,0)"/></g><g transform="translate(322.6419790005316,98.36310667721759)"><text x="0" y="0" text-anchor="middle" dominant-baseline="text-before-edge" transform="translate(0,0)"/></g><g transform="translate(350.5941985645933,98.36310667721759)"><text x="0" y="0" text-anchor="middle" dominant-baseline="text-before-edge" transform="translate(0,0)"/></g><g transform="translate(378.5464181286549,98.36310667721759)"><text x="0" y="0" text-anchor="middle" dominant-baseline="text-before-edge" transform="translate(0,0)"/></g><g transform="translate(406.4986376927166,98.36310667721759)"><text x="0" y="0" text-anchor="middle" dominant-baseline="text-before-edge" transform="translate(0,0)"/></g><g transform="translate(434.45085725677825,98.36310667721759)"><text x="0" y="0" text-anchor="middle" dominant-baseline="text-before-edge" transform="translate(0,0)"/></g><g transform="translate(462.40307682083994,98.36310667721759)"><text x="0" y="0" text-anchor="middle" dominant-baseline="text-before-edge" transform="translate(0,0)"/></g><g transform="translate(490.35529638490164,98.36310667721759)"><text x="0" y="0" text-anchor="middle" dominant-baseline="text-before-edge" transform="translate(0,0)"/></g><g transform="translate(518.3075159489633,98.36310667721759)"><text x="0" y="0" text-anchor="middle" dominant-baseline="text-before-edge" transform="translate(0,0)"/></g><g transform="translate(546.259735513025,98.36310667721759)"><text x="0" y="0" text-anchor="middle" dominant-baseline="text-before-edge" transform="translate(0,0)"/></g><g transform="translate(574.2119550770867,98.36310667721759)"><text x="0" y="0" text-anchor="middle" dominant-baseline="text-before-edge" transform="translate(0,0)"/></g><g transform="translate(602.1641746411483,98.36310667721759)"><text x="0" y="0" text-anchor="middle" dominant-baseline="text-before-edge" transform="translate(0,0)"/></g><g transform="translate(630.11639420521,98.36310667721759)"><text x="0" y="0" text-anchor="middle" dominant-baseline="text-before-edge" transform="translate(0,0)"/></g><g transform="translate(658.0686137692717,98.36310667721759)"><text x="0" y="0" text-anchor="middle" dominant-baseline="text-before-edge" transform="translate(0,0)"/></g><g transform="translate(15.167563795853274,126.1004550079132)"><text x="0" y="0" text-anchor="middle" dominant-baseline="text-before-edge" transform="translate(0,0)"/></g><g transform="translate(43.11978335991494,126.1004550079132)"><text x="0" y="0" text-anchor="middle" dominant-baseline="text-before-edge" transform="translate(0,0)"/></g><g transform="translate(71.07200292397661,126.1004550079132)"><text x="0" y="0" text-anchor="middle" dominant-baseline="text-before-edge" transform="translate(0,0)"/></g><g transform="translate(99.02422248803828,126.1004550079132)"><text x="0" y="0" text-anchor="middle" dominant-baseline="text-before-edge" transform="translate(0,0)"/></g><g transform="translate(126.97644205209994,126.1004550079132)"><text x="0" y="0" text-anchor="middle" dominant-baseline="text-before-edge" transform="translate(0,0)"/></g><g transform="translate(154.92866161616163,126.1004550079132)"><text x="0" y="0" text-anchor="middle" dominant-baseline="text-before-edge" transform="translate(0,0)"/></g><g transform="translate(182.8808811802233,126.1004550079132)"><text x="0" y="0" text-anchor="middle" dominant-baseline="text-before-edge" transform="translate(0,0)"/></g><g transform="translate(210.83310074428496,126.1004550079132)"><text x="0" y="0" text-anchor="middle" dominant-baseline="text-before-edge" transform="translate(0,0)"/></g><g transform="translate(238.78532030834663,126.1004550079132)"><text x="0" y="0" text-anchor="middle" dominant-baseline="text-before-edge" transform="translate(0,0)"/></g><g transform="translate(266.73753987240826,126.1004550079132)"><text x="0" y="0" text-anchor="middle" dominant-baseline="text-before-edge" transform="translate(0,0)"/></g><g transform="translate(294.68975943646996,126.1004550079132)"><text x="0" y="0" text-anchor="middle" dominant-baseline="text-before-edge" transform="translate(0,0)"/></g><g transform="translate(322.6419790005316,126.1004550079132)"><text x="0" y="0" text-anchor="middle" dominant-baseline="text-before-edge" transform="translate(0,0)"/></g><g transform="translate(350.5941985645933,126.1004550079132)"><text x="0" y="0" text-anchor="middle" dominant-baseline="text-before-edge" transform="translate(0,0)"/></g><g transform="translate(378.5464181286549,126.1004550079132)"><text x="0" y="0" text-anchor="middle" dominant-baseline="text-before-edge" transform="translate(0,0)"/></g><g transform="translate(406.4986376927166,126.1004550079132)"><text x="0" y="0" text-anchor="middle" dominant-baseline="text-before-edge" transform="translate(0,0)"/></g><g transform="translate(434.45085725677825,126.1004550079132)"><text x="0" y="0" text-anchor="middle" dominant-baseline="text-before-edge" transform="translate(0,0)"/></g><g transform="translate(462.40307682083994,126.1004550079132)"><text x="0" y="0" text-anchor="middle" dominant-baseline="text-before-edge" transform="translate(0,0)"/></g><g transform="translate(490.35529638490164,126.1004550079132)"><text x="0" y="0" text-anchor="middle" dominant-baseline="text-before-edge" transform="translate(0,0)"/></g><g transform="translate(518.3075159489633,126.1004550079132)"><text x="0" y="0" text-anchor="middle" dominant-baseline="text-before-edge" transform="translate(0,0)"/></g><g transform="translate(546.259735513025,126.1004550079132)"><text x="0" y="0" text-anchor="middle" dominant-baseline="text-before-edge" transform="translate(0,0)"/></g><g transform="translate(574.2119550770867,126.1004550079132)"><text x="0" y="0" text-anchor="middle" dominant-baseline="text-before-edge" transform="translate(0,0)"/></g><g transform="translate(602.1641746411483,126.1004550079132)"><text x="0" y="0" text-anchor="middle" dominant-baseline="text-before-edge" transform="translate(0,0)"/></g><g transform="translate(630.11639420521,126.1004550079132)"><text x="0" y="0" text-anchor="middle" dominant-baseline="text-before-edge" transform="translate(0,0)"/></g><g transform="translate(658.0686137692717,126.1004550079132)"><text x="0" y="0" text-anchor="middle" dominant-baseline="text-before-edge" transform="translate(0,0)"/></g><g transform="translate(15.167563795853274,153.83780333860884)"><text x="0" y="0" text-anchor="middle" dominant-baseline="text-before-edge" transform="translate(0,0)"/></g><g transform="translate(43.11978335991494,153.83780333860884)"><text x="0" y="0" text-anchor="middle" dominant-baseline="text-before-edge" transform="translate(0,0)"/></g><g transform="translate(71.07200292397661,153.83780333860884)"><text x="0" y="0" text-anchor="middle" dominant-baseline="text-before-edge" transform="translate(0,0)"/></g><g transform="translate(99.02422248803828,153.83780333860884)"><text x="0" y="0" text-anchor="middle" dominant-baseline="text-before-edge" transform="translate(0,0)"/></g><g transform="translate(126.97644205209994,153.83780333860884)"><text x="0" y="0" text-anchor="middle" dominant-baseline="text-before-edge" transform="translate(0,0)"/></g><g transform="translate(154.92866161616163,153.83780333860884)"><text x="0" y="0" text-anchor="middle" dominant-baseline="text-before-edge" transform="translate(0,0)"/></g><g transform="translate(182.8808811802233,153.83780333860884)"><text x="0" y="0" text-anchor="middle" dominant-baseline="text-before-edge" transform="translate(0,0)"/></g><g transform="translate(210.83310074428496,153.83780333860884)"><text x="0" y="0" text-anchor="middle" dominant-baseline="text-before-edge" transform="translate(0,0)"/></g><g transform="translate(238.78532030834663,153.83780333860884)"><text x="0" y="0" text-anchor="middle" dominant-baseline="text-before-edge" transform="translate(0,0)"/></g><g transform="translate(266.73753987240826,153.83780333860884)"><text x="0" y="0" text-anchor="middle" dominant-baseline="text-before-edge" transform="translate(0,0)"/></g><g transform="translate(294.68975943646996,153.83780333860884)"><text x="0" y="0" text-anchor="middle" dominant-baseline="text-before-edge" transform="translate(0,0)"/></g><g transform="translate(322.6419790005316,153.83780333860884)"><text x="0" y="0" text-anchor="middle" dominant-baseline="text-before-edge" transform="translate(0,0)"/></g><g transform="translate(350.5941985645933,153.83780333860884)"><text x="0" y="0" text-anchor="middle" dominant-baseline="text-before-edge" transform="translate(0,0)"/></g><g transform="translate(378.5464181286549,153.83780333860884)"><text x="0" y="0" text-anchor="middle" dominant-baseline="text-before-edge" transform="translate(0,0)"/></g><g transform="translate(406.4986376927166,153.83780333860884)"><text x="0" y="0" text-anchor="middle" dominant-baseline="text-before-edge" transform="translate(0,0)"/></g><g transform="translate(434.45085725677825,153.83780333860884)"><text x="0" y="0" text-anchor="middle" dominant-baseline="text-before-edge" transform="translate(0,0)"/></g><g transform="translate(462.40307682083994,153.83780333860884)"><text x="0" y="0" text-anchor="middle" dominant-baseline="text-before-edge" transform="translate(0,0)"/></g><g transform="translate(490.35529638490164,153.83780333860884)"><text x="0" y="0" text-anchor="middle" dominant-baseline="text-before-edge" transform="translate(0,0)"/></g><g transform="translate(518.3075159489633,153.83780333860884)"><text x="0" y="0" text-anchor="middle" dominant-baseline="text-before-edge" transform="translate(0,0)"/></g><g transform="translate(546.259735513025,153.83780333860884)"><text x="0" y="0" text-anchor="middle" dominant-baseline="text-before-edge" transform="translate(0,0)"/></g><g transform="translate(574.2119550770867,153.83780333860884)"><text x="0" y="0" text-anchor="middle" dominant-baseline="text-before-edge" transform="translate(0,0)"/></g><g transform="translate(602.1641746411483,153.83780333860884)"><text x="0" y="0" text-anchor="middle" dominant-baseline="text-before-edge" transform="translate(0,0)"/></g><g transform="translate(630.11639420521,153.83780333860884)"><text x="0" y="0" text-anchor="middle" dominant-baseline="text-before-edge" transform="translate(0,0)"/></g><g transform="translate(658.0686137692717,153.83780333860884)"><text x="0" y="0" text-anchor="middle" dominant-baseline="text-before-edge" transform="translate(0,0)"/></g><g transform="translate(15.167563795853274,181.57515166930443)"><text x="0" y="0" text-anchor="middle" dominant-baseline="text-before-edge" transform="translate(0,0)"/></g><g transform="translate(43.11978335991494,181.57515166930443)"><text x="0" y="0" text-anchor="middle" dominant-baseline="text-before-edge" transform="translate(0,0)"/></g><g transform="translate(71.07200292397661,181.57515166930443)"><text x="0" y="0" text-anchor="middle" dominant-baseline="text-before-edge" transform="translate(0,0)"/></g><g transform="translate(99.02422248803828,181.57515166930443)"><text x="0" y="0" text-anchor="middle" dominant-baseline="text-before-edge" transform="translate(0,0)"/></g><g transform="translate(126.97644205209994,181.57515166930443)"><text x="0" y="0" text-anchor="middle" dominant-baseline="text-before-edge" transform="translate(0,0)"/></g><g transform="translate(154.92866161616163,181.57515166930443)"><text x="0" y="0" text-anchor="middle" dominant-baseline="text-before-edge" transform="translate(0,0)"/></g><g transform="translate(182.8808811802233,181.57515166930443)"><text x="0" y="0" text-anchor="middle" dominant-baseline="text-before-edge" transform="translate(0,0)"/></g><g transform="translate(210.83310074428496,181.57515166930443)"><text x="0" y="0" text-anchor="middle" dominant-baseline="text-before-edge" transform="translate(0,0)"/></g><g transform="translate(238.78532030834663,181.57515166930443)"><text x="0" y="0" text-anchor="middle" dominant-baseline="text-before-edge" transform="translate(0,0)"/></g><g transform="translate(266.73753987240826,181.57515166930443)"><text x="0" y="0" text-anchor="middle" dominant-baseline="text-before-edge" transform="translate(0,0)"/></g><g transform="translate(294.68975943646996,181.57515166930443)"><text x="0" y="0" text-anchor="middle" dominant-baseline="text-before-edge" transform="translate(0,0)"/></g><g transform="translate(322.6419790005316,181.57515166930443)"><text x="0" y="0" text-anchor="middle" dominant-baseline="text-before-edge" transform="translate(0,0)"/></g><g transform="translate(350.5941985645933,181.57515166930443)"><text x="0" y="0" text-anchor="middle" dominant-baseline="text-before-edge" transform="translate(0,0)"/></g><g transform="translate(378.5464181286549,181.57515166930443)"><text x="0" y="0" text-anchor="middle" dominant-baseline="text-before-edge" transform="translate(0,0)"/></g><g transform="translate(406.4986376927166,181.57515166930443)"><text x="0" y="0" text-anchor="middle" dominant-baseline="text-before-edge" transform="translate(0,0)"/></g><g transform="translate(434.45085725677825,181.57515166930443)"><text x="0" y="0" text-anchor="middle" dominant-baseline="text-before-edge" transform="translate(0,0)"/></g><g transform="translate(462.40307682083994,181.57515166930443)"><text x="0" y="0" text-anchor="middle" dominant-baseline="text-before-edge" transform="translate(0,0)"/></g><g transform="translate(490.35529638490164,181.57515166930443)"><text x="0" y="0" text-anchor="middle" dominant-baseline="text-before-edge" transform="translate(0,0)"/></g><g transform="translate(518.3075159489633,181.57515166930443)"><text x="0" y="0" text-anchor="middle" dominant-baseline="text-before-edge" transform="translate(0,0)"/></g><g transform="translate(546.259735513025,181.57515166930443)"><text x="0" y="0" text-anchor="middle" dominant-baseline="text-before-edge" transform="translate(0,0)"/></g><g transform="translate(574.2119550770867,181.57515166930443)"><text x="0" y="0" text-anchor="middle" dominant-baseline="text-before-edge" transform="translate(0,0)"/></g><g transform="translate(602.1641746411483,181.57515166930443)"><text x="0" y="0" text-anchor="middle" dominant-baseline="text-before-edge" transform="translate(0,0)"/></g><g transform="translate(630.11639420521,181.57515166930443)"><text x="0" y="0" text-anchor="middle" dominant-baseline="text-before-edge" transform="translate(0,0)"/></g><g transform="translate(658.0686137692717,181.57515166930443)"><text x="0" y="0" text-anchor="middle" dominant-baseline="text-before-edge" transform="translate(0,0)"/></g></g></g></svg>